<svg width="180" height="60" viewBox="0 0 180 60" xmlns="http://www.w3.org/2000/svg" role="img" aria-label="Bangka Sewa Mobil">
  <defs>
    <linearGradient id="accent" x1="0" y1="0" x2="1" y2="0">
      <stop offset="0%" stop-color="#ffffff"/>
      <stop offset="100%" stop-color="#f2f6ff"/>
    </linearGradient>
  </defs>
  <g fill="none" stroke-linecap="round" stroke-linejoin="round">
    <path d="M18 32c2-9 9-15 20-17l26-4c7-.7 14 1.4 20 5.7l7 5c4 2.8 8.6 4.3 13.3 4.3H140c5.2 0 10.1 2.4 13.2 6.5l3 4c1.8 2.4.2 5.9-2.8 5.9h-6.5c-1.8 6-7.6 10.3-14.4 10.3-7 0-12.8-4.8-14.5-11.3H73.8c-1.7 6.5-7.5 11.3-14.5 11.3-7 0-12.8-4.8-14.5-11.3H20c-3 0-5.2-2.8-4.5-5.7Z" stroke="#ffffff" stroke-width="3"/>
    <path d="M66 23c7-5 16-7 24-5l12 3c5 1.3 10.2 2 15.4 2h12" stroke="url(#accent)" stroke-width="3"/>
    <path d="M52 29h23M102 29h24" stroke="#ffffff" stroke-width="3"/>
    <circle cx="60" cy="41" r="10" stroke="#ffffff" stroke-width="3"/>
    <circle cx="125" cy="41" r="10" stroke="#ffffff" stroke-width="3"/>
    <path d="M66 41a6 6 0 0 0-12 0M131 41a6 6 0 0 0-12 0" stroke="#ffffff" stroke-width="3"/>
  </g>
  <text x="90" y="18" text-anchor="middle" font-family="Montserrat, Arial, sans-serif" font-size="14" font-weight="800" fill="#ffffff">BSM</text>
</svg>
